<svg xmlns="http://www.w3.org/2000/svg" xmlns:xlink="http://www.w3.org/1999/xlink" width="283" height="190" viewBox="0 0 283 190">
    <defs>
        <path id="a" d="M44.734 0H283V144.701L239.519 190H0V47.321z"/>
        <path id="c" d="M31.417.31v89.655H.087V.31h31.33z"/>
    </defs>
    <g fill="none" fill-rule="evenodd">
        <mask id="b" fill="#fff">
            <use xlink:href="#a"/>
        </mask>
        <use fill="#F03746" xlink:href="#a"/>
        <g mask="url(#b)">
            <path fill="#4A4A4A" d="M152.099 155.014c.273-.248.391-.307.429-.398.145-.36.287-.722.39-1.095 2.005-7.207 2.453-14.512 1.07-21.866-1.124-5.98-3.081-11.661-7.215-16.316-1.03-1.16-2.316-2.092-3.485-3.128l-.449.353c1.692 14.411 3.68 28.757 9.26 42.45m1.832 7.976c-10.803-20.144-15.957-41.758-13.689-64.822-2.762 2.586-5.276 5.515-8.332 7.677-5.86 4.145-12.045 7.828-18.062 11.753-3.401 2.22-6.905 4.33-10.058 6.87-3.171 2.554-5.214 6.03-5.278 10.249-.038 2.546.117 5.166.682 7.64 1.635 7.16 5.152 13.603 15.954 13.405 8.084-.149 16.155.668 24.012 2.689 5.045 1.296 9.973 3.048 14.771 4.54m21.245-21.12c.223 7.505-.026 14.97-2.453 22.158a19.708 19.708 0 0 1-2.847 5.434c-1.913 2.552-4.502 3.018-7.253 1.42-4.188-2.432-8.191-5.25-13.02-6.298-6.357-1.38-12.695-2.952-19.123-3.867-6.767-.962-13.627-1.28-20.452-1.816-3.154-.247-4.511.913-4.468 4.107.023 1.734.645 3.468 1.063 5.187.47 1.94.891 3.91 1.571 5.78.461 1.267 1.205 2.487 2.05 3.544 1.21 1.514 2.448 2.846 1.715 5.074-.2.609.375 1.581.796 2.261.583.943 1.385 1.747 2.043 2.647.898 1.228 1.12 2.586.323 3.923-.975 1.637-.662 3.015.442 4.46 1.378 1.803 1.1 2.416-1.204 2.719-3.148.414-6.233.034-9.17-1.186-2.947-1.224-5.029-3.408-5.913-6.452-1.367-4.702-2.35-9.519-3.777-14.2-.905-2.964-2.068-5.912-3.57-8.612-2.158-3.878-5.364-6.001-10.192-5.386-3.468.443-6.063-1.464-7.736-4.529-1.754-3.216-2.26-6.757-2.484-10.326-.142-2.276-.2-4.607.12-6.854.925-6.523 5.064-10.443 10.907-12.85 7.305-3.008 14.844-5.56 21.859-9.14 13.026-6.645 24.803-15.181 35.134-25.625 1.243-1.257 2.05-2.658 2.493-4.423.467-1.867 1.188-3.745 2.175-5.391 2.221-3.705 6.264-4.588 10.009-2.405 2.835 1.654 4.78 4.172 6.452 6.9 4.615 7.532 7.491 15.789 9.873 24.236 2.721 9.65 4.358 19.475 4.637 29.51"/>
            <g transform="translate(186.536 77.025)">
                <mask id="d" fill="#fff">
                    <use xlink:href="#c"/>
                </mask>
                <path fill="#4A4A4A" d="M18.062 89.965c2.43-6.326 4.2-12.794 5.148-19.504.997-7.056 1.165-14.128.581-21.214-.77-9.341-2.767-18.413-6.434-27.062C13.605 13.333 8.385 5.612.087.31c4.658 1.47 8.907 3.708 12.77 6.642 9.697 7.363 15.486 17.21 17.503 29.12 3.287 19.417-1.201 37.205-11.985 53.518-.09.135-.208.25-.313.375" mask="url(#d)"/>
            </g>
            <path fill="#4A4A4A" d="M192.9 160.944c1.197-4.788 2.795-9.517 3.515-14.376 2.324-15.686.448-30.806-7.147-44.943-2.574-4.79-6.112-8.767-10.59-12.016.464.17.938.316 1.39.513 12.995 5.67 20.42 15.699 22.466 29.6 2.1 14.263-1.223 27.45-8.798 39.623-.337.542-.712 1.06-1.07 1.588.079.004.157.008.235.01"/>
            <path fill="#4A4A4A" d="M181.766 156.64c2.547-7.234 3.708-14.623 3.415-22.22-.375-9.731-2.403-19.058-7.964-27.23-1.868-2.746-4.443-5.01-6.377-7.143 7.666 2.914 13.537 8.51 16.6 16.719 4.28 11.469 2.727 22.688-2.26 33.585-.99 2.164-2.269 4.196-3.414 6.29M63.341 140.899c-1.53.65-2.415 1.25-2.664 2.675-.809 4.628-.157 8.98 2.323 12.976.436.703 1.358 1.104 2.056 1.644l.477-.413c-2.775-5.279-3.43-10.854-2.192-16.882m4.287-1.748c-2.013-.308-2.046 1.03-2.284 2.153-1.165 5.496-.107 10.73 1.745 15.91.522 1.462 1.283 1.78 2.79 1.266-1.916-6.276-4.175-12.527-2.251-19.33m4.725-5.74c-4.216 10.058-4.467 19.6 3.372 28.849-3.923-.76-7.502-1.204-10.93-2.185-3.585-1.026-5.772-3.673-6.453-7.406-.58-3.18-.476-6.338.733-9.378.935-2.35 2.434-4.212 4.753-5.385 2.923-1.48 5.799-3.053 8.525-4.495"/>
        </g>
    </g>
</svg>
