<?xml version="1.0" encoding="UTF-8"?>
<svg width="61px" height="61px" viewBox="0 0 61 61" version="1.1" xmlns="http://www.w3.org/2000/svg" xmlns:xlink="http://www.w3.org/1999/xlink">
    <!-- Generator: sketchtool 46 (44423) - http://www.bohemiancoding.com/sketch -->
    <title>45F45EBC-ED94-4220-A79D-39F50782C412</title>
    <desc>Created with sketchtool.</desc>
    <defs></defs>
    <g id="Symbols" stroke="none" stroke-width="1" fill="none" fill-rule="evenodd">
        <g id="C2---Facebook-without-image">
            <g id="Facebook">
                <g id="Group-5-Copy-2" fill="#222B64">
                    <rect id="Rectangle" x="0" y="0" width="61" height="61"></rect>
                </g>
                <path d="M37.1646194,18.8273389 L37.1646194,14.8 L33.5243582,14.8 C31.1674987,14.8 29.5394032,15.3460286 28.5935191,16.3891664 C27.623116,17.4592449 27.121691,19.0973073 27.121691,21.3363313 L27.121691,25.5196649 L23.8,25.5196649 L23.8,29.5470038 L26.321691,29.5470038 L27.121691,29.5470038 L27.121691,45.9272727 L32.165073,45.9272727 L32.165073,29.5470038 L36.6854194,29.5470038 L37.111006,25.5196649 L32.165073,25.5196649 L32.165073,21.9059954 C32.165073,21.4319016 32.1915075,21.05218 32.2501523,20.751821 C32.3184564,20.4119139 32.4511593,20.0907723 32.6447799,19.7959155 C32.8932461,19.4150713 33.2694405,19.1527433 33.7383947,19.0070974 C34.1302448,18.8836022 34.6132768,18.8273389 35.2022136,18.8273389 L37.1646194,18.8273389 Z" id="Fill-1-path" stroke="#FFFFFF" stroke-width="1.6" opacity="0.7"></path>
            </g>
        </g>
    </g>
</svg>