<?xml version="1.0" encoding="UTF-8"?>
<svg width="61px" height="61px" viewBox="0 0 61 61" version="1.1" xmlns="http://www.w3.org/2000/svg" xmlns:xlink="http://www.w3.org/1999/xlink">
    <!-- Generator: sketchtool 46 (44423) - http://www.bohemiancoding.com/sketch -->
    <title>AE7CA57A-1773-49E4-9F62-CB29A039873D</title>
    <desc>Created with sketchtool.</desc>
    <defs></defs>
    <g id="Symbols" stroke="none" stroke-width="1" fill="none" fill-rule="evenodd">
        <g id="C2---Instagram-with-caption">
            <g id="Instagram">
                <rect id="Rectangle" fill="#357090" x="0" y="0" width="61" height="61"></rect>
                <path d="M36.2911779,36.2911779 C34.5514119,38.0309439 32.4750213,38.9000177 30.0587696,38.9000177 C27.6425178,38.9000177 25.5758376,38.0309439 23.8603474,36.2911779 C22.1432388,34.5530302 21.2854937,32.48635 21.2854937,30.0927557 C21.2854937,29.6865405 21.3308085,29.1217235 21.4214382,28.3983045 L15.5272727,28.3983045 L15.5272727,40.0506909 C15.5272727,41.3162695 15.967474,42.3989704 16.8478765,43.3036487 C17.728279,44.2050903 18.8012696,44.6582386 20.0652299,44.6582386 L40.1186631,44.6582386 C41.3826234,44.6582386 42.4556139,44.2050903 43.3360165,43.3036487 C44.2180374,42.3989704 44.6582386,41.3162695 44.6582386,40.0506909 L44.6582386,28.3983045 L38.6961009,28.3983045 C38.8320455,28.9404641 38.9000177,29.5052812 38.9000177,30.0927557 C38.9000177,32.48635 38.0293255,34.5530302 36.2911779,36.2911779 L36.2911779,36.2911779 Z M20.0652299,15.5272727 C18.8012696,15.5272727 17.728279,15.967474 16.8478765,16.8478765 C15.967474,17.728279 15.5272727,18.8012696 15.5272727,20.0652299 L15.5272727,25.0110205 L22.9119726,25.0110205 C24.582148,22.5267965 26.9757423,21.2854937 30.0927557,21.2854937 C33.117521,21.2854937 35.5127337,22.5267965 37.2735388,25.0110205 L44.6582386,25.0110205 L44.6582386,20.0652299 C44.6582386,18.8012696 44.2180374,17.728279 43.3360165,16.8478765 C42.4556139,15.967474 41.3826234,15.5272727 40.1186631,15.5272727 L20.0652299,15.5272727 Z M41.473253,21.9635978 L39.0343438,21.9635978 C38.809388,21.9635978 38.6168,21.8729681 38.4598164,21.6917088 C38.3012145,21.5120678 38.2219136,21.3308085 38.2219136,21.1495491 L38.2219136,18.7106399 C38.2219136,18.1684803 38.4921842,17.8982097 39.0343438,17.8982097 L41.473253,17.8982097 C42.0154127,17.8982097 42.2873017,18.1684803 42.2873017,18.7106399 L42.2873017,21.1495491 C42.2873017,21.6917088 42.0154127,21.9635978 41.473253,21.9635978 L41.473253,21.9635978 Z M33.9202409,26.2312843 C32.8585791,25.1922799 31.5832901,24.6727776 30.0927557,24.6727776 C28.6022213,24.6727776 27.3253139,25.1922799 26.2652704,26.2312843 C25.2036086,27.2702888 24.6727776,28.5455777 24.6727776,30.0587696 C24.6727776,31.5719614 25.2036086,32.8585791 26.2652704,33.9202409 C27.3253139,34.9819028 28.6022213,35.5127337 30.0927557,35.5127337 C31.5832901,35.5127337 32.8585791,34.9819028 33.9202409,33.9202409 C34.9819028,32.8585791 35.5127337,31.5832901 35.5127337,30.0927557 C35.5127337,28.5569064 34.9819028,27.2702888 33.9202409,26.2312843 L33.9202409,26.2312843 Z" id="Instagram-Reverse" stroke="#FFFFFF" stroke-width="1.6"></path>
            </g>
        </g>
    </g>
</svg>