<?xml version="1.0" encoding="UTF-8"?>
<svg width="41px" height="29px" viewBox="0 0 41 29" version="1.1" xmlns="http://www.w3.org/2000/svg" xmlns:xlink="http://www.w3.org/1999/xlink">
    <!-- Generator: sketchtool 46.1 (44463) - http://www.bohemiancoding.com/sketch -->
    <title>02DC9E34-D8D9-462C-84D7-DEA42A9C9205</title>
    <desc>Created with sketchtool.</desc>
    <defs></defs>
    <g id="Desktop" stroke="none" stroke-width="1" fill="none" fill-rule="evenodd">
        <g id="Desktop---Article-page" transform="translate(-464.000000, -4116.000000)" fill="#B7956E">
            <g id="Pull-out-quote" transform="translate(-6.000000, 4097.000000)">
                <path d="M470,38.9579968 C470,34.1168309 471.59884,30.0019017 474.796569,26.6130856 C477.994297,23.2242695 482.728727,20.6865997 489,19 L489,23.3101777 C487.044108,23.9036109 485.375415,24.668816 483.993873,25.6058158 C482.61233,26.5428157 481.525739,27.6125411 480.734069,28.8150242 C479.942398,30.0175074 479.546569,31.1653149 479.546569,32.2584814 C479.546569,32.976848 479.787171,33.5780805 480.268382,34.0621971 C480.749594,34.5463137 481.704241,35.1631626 483.132353,35.9127625 C485.522888,37.193329 486.718137,39.1297663 486.718137,41.7221325 C486.718137,43.6273655 486.027376,45.1499674 484.645833,46.2899838 C483.26429,47.4300003 481.440371,48 479.17402,48 C476.535118,48 474.346414,47.1489046 472.607843,45.4466882 C470.869272,43.7444718 470,41.5815963 470,38.9579968 Z M492,38.9579968 C492,34.1168309 493.59884,30.0019017 496.796569,26.6130856 C499.994297,23.2242695 504.728727,20.6865997 511,19 L511,23.3101777 C509.044108,23.9036109 507.375415,24.668816 505.993873,25.6058158 C504.61233,26.5428157 503.525739,27.6125411 502.734069,28.8150242 C501.942398,30.0175074 501.546569,31.1653149 501.546569,32.2584814 C501.546569,32.976848 501.787171,33.5780805 502.268382,34.0621971 C502.749594,34.5463137 503.704241,35.1631626 505.132353,35.9127625 C507.522888,37.193329 508.718137,39.1297663 508.718137,41.7221325 C508.718137,43.6273655 508.027376,45.1499674 506.645833,46.2899838 C505.26429,47.4300003 503.440371,48 501.17402,48 C498.535118,48 496.346414,47.1489046 494.607843,45.4466882 C492.869272,43.7444718 492,41.5815963 492,38.9579968 Z" id="Quote"></path>
            </g>
        </g>
    </g>
</svg>