<svg xmlns="http://www.w3.org/2000/svg" xmlns:xlink="http://www.w3.org/1999/xlink" width="140" height="37" viewBox="0 0 140 37">
    <defs>
        <path id="a" d="M0 .28v35.222h43.554V.279z"/>
        <path id="c" d="M.121.276h9.001v5.765h-9V.276z"/>
    </defs>
    <g fill="none" fill-rule="evenodd">
        <g transform="translate(0 .33)">
            <mask id="b" fill="#fff">
                <use xlink:href="#a"/>
            </mask>
            <path fill="#FFF" d="M40.653 4.556c-1.748 0-2.455.93-2.455 2.641v28.268h-9.707L10.86 10.284v18.188c0 1.785.743 2.715 2.455 2.715h3.347v4.315H0v-4.315h2.864c1.748 0 2.455-.93 2.455-2.715V7.494c0-1.785-.744-2.938-2.455-2.938H0V.28h15.287l17.295 24.957V7.234c0-1.748-.67-2.64-2.417-2.64H26.78V.278h16.774v4.314h-2.9v-.037z" mask="url(#b)"/>
        </g>
        <path fill="#FFF" d="M60.478 19.504c-.112-2.827-1.265-5.394-4.5-5.394-3.088 0-4.501 2.306-4.724 5.319 0 .298-.038.856-.038.856h9.262v-.781zm-9.373 4.574s0 1.042.037 1.674c.223 3.57 2.195 6.211 6.063 6.211 3.942 0 5.876-2.454 5.988-5.467h5.728c-.297 5.43-4.352 9.894-12.832 9.894-8.034 0-14.245-4.91-14.245-13.279 0-7.587 5.913-13.39 14.134-13.39 8.033 0 12.869 5.32 13.017 12.238 0 .93.038 1.45.038 2.12H51.105zM114 14.891c-1.376 0-1.934.967-2.566 2.567l-6.88 18.337h-8.295l-4.575-12.089-4.24 12.089h-8.63l-6.806-18.97c-.52-1.487-1.041-1.934-2.008-1.934h-1.19v-3.98h14.803v3.943l-1.34.037c-1.338.037-1.673.558-1.264 1.786l4.5 13.018 3.906-11.68c.111-.26-.037-1.487-.037-1.785-.26-.855-.93-1.376-1.748-1.376h-1.265v-3.942h14.543v3.905l-1.525.037c-1.264.037-1.636.558-1.227 1.786l4.5 13.055 4.315-12.61c.149-.408.26-1.04.26-1.375 0-.52-.52-.856-1.19-.856h-1.934v-3.942h10.712v4.016H114v-.037zM128.543 36.278c-3.83 0-6.472-1.116-7.625-1.785-.855-.26-1.487.558-1.636 1.339h-3.645v-9.596h4.166s.037.855.149 1.19c.26 2.864 3.124 4.724 6.769 4.724 2.975 0 4.463-1.079 4.463-2.604 0-1.339-.78-2.269-3.905-2.938l-4.426-.967c-5.021-1.116-7.29-3.497-7.29-7.44 0-5.02 4.202-8.517 10.563-8.517 3.905 0 6.1 1.34 6.955 1.674.558.149 1.079-.26 1.228-1.19h3.384v8.815h-4.054s-.112-.781-.149-1.079c-.26-2.306-2.455-4.017-5.69-4.017-3.013 0-4.575.856-4.575 2.418 0 1.264.706 1.897 3.347 2.455l6.137 1.339c4.724 1.041 6.881 3.533 6.881 7.439.037 5.616-4.426 8.74-11.047 8.74M51.142 5.518l.26-1.302c.26.075 2.12.373 3.423.373 1.896 0 2.082-.075 2.082-.484 0-.41-.26-.41-2.12-.446-2.715-.037-3.682-.223-3.682-1.748 0-1.526.93-1.749 3.757-1.749 1.562 0 3.273.261 3.682.373l-.298 1.264c-.67-.112-2.268-.335-3.384-.335-1.637 0-1.897.037-1.897.41 0 .371.185.409 2.008.446 3.05.037 3.794.297 3.794 1.785s-.744 1.748-3.98 1.748c-1.822.038-3.199-.186-3.645-.335M60.255.311h1.785V2.32h4.129V.31h1.785V5.78h-1.785v-2.12h-4.13v2.12h-1.784zM69.553.311h6.732v1.376h-4.872v.707h2.938V3.66h-2.938v.818h4.872v1.302h-6.732zM82.274 3.212c.669 0 .855-.186.855-.78 0-.596-.186-.782-.855-.782h-2.827v1.525c.298.037 2.418.037 2.827.037zm-4.687-2.9h4.798c1.488 0 2.53.334 2.53 2.082 0 1.674-1.08 2.083-2.567 2.083h-2.975v1.302H77.55V.31h.037zM90.791 3.212c.67 0 .856-.186.856-.78 0-.596-.187-.782-.856-.782h-2.826v1.525c.297.037 2.417.037 2.826.037zm-4.686-2.9h4.798c1.487 0 2.53.334 2.53 2.082 0 1.674-1.08 2.083-2.567 2.083H87.89v1.302h-1.823V.31h.038zM97.375 1.65L96.147 3.66h2.455L97.375 1.65zM94.808 5.78h-1.897L96.333.274h2.158l3.421 5.505h-2.045l-.521-.818h-4.091l-.447.818zM107.529 2.99c.669 0 .855-.112.855-.67s-.186-.67-.855-.67h-2.864v1.302c.335.037 2.678.037 2.864.037zm3.273 2.789h-2.232l-1.934-1.6h-2.009v1.6h-1.785V.31h4.798c1.488 0 2.53.372 2.53 1.935 0 .966-.633 1.487-1.637 1.673l2.269 1.86zM114.298 1.687h-3.087V.311h7.996v1.376h-3.086V5.78h-1.823z"/>
        <g transform="translate(119.719 -.15)">
            <mask id="d" fill="#fff">
                <use xlink:href="#c"/>
            </mask>
            <path fill="#FFF" d="M7.151 3.177c0-1.413-.595-1.487-2.567-1.487-1.934 0-2.492.074-2.492 1.487 0 1.414.558 1.525 2.53 1.525 1.971 0 2.529-.074 2.529-1.525m-7.03 0c0-2.417 1.376-2.9 4.501-2.9 3.124 0 4.5.483 4.5 2.9 0 2.418-1.413 2.864-4.538 2.864-3.124 0-4.463-.446-4.463-2.864" mask="url(#d)"/>
        </g>
        <path fill="#FFF" d="M130.068.311h1.897l4.092 3.236V.311h1.748V5.78h-1.6l-4.351-3.46v3.46h-1.749V.31z"/>
    </g>
</svg>
