<?xml version="1.0" encoding="UTF-8"?>
<svg width="61px" height="61px" viewBox="0 0 61 61" version="1.1" xmlns="http://www.w3.org/2000/svg" xmlns:xlink="http://www.w3.org/1999/xlink">
    <!-- Generator: sketchtool 46 (44423) - http://www.bohemiancoding.com/sketch -->
    <title>F1FD48E5-993D-46D7-93A8-16D55E74A66B</title>
    <desc>Created with sketchtool.</desc>
    <defs></defs>
    <g id="Symbols" stroke="none" stroke-width="1" fill="none" fill-rule="evenodd">
        <g id="C2---Twitter-with-image">
            <g id="Twitter">
                <g id="Group-5-Copy-2" fill="#87C6E9">
                    <rect id="Rectangle" x="0" y="0" width="61" height="61"></rect>
                </g>
                <path d="M42.135233,21.920308 C43.488912,21.1040798 44.4110221,19.9487617 44.9015632,18.4543536 C43.6644882,19.2022278 42.3335939,19.7155536 40.9102205,19.9956713 C39.6490206,18.664777 38.1090431,18 36.2876077,18 C34.5372069,18 33.0427989,18.6178674 31.8057239,19.8549423 C30.5686489,21.0920173 29.9507816,22.5864253 29.9507816,24.3368261 C29.9507816,24.8045825 29.996351,25.2817209 30.0901703,25.772262 C27.4994163,25.6328733 25.0828982,24.9788184 22.8419564,23.8114378 C20.6023547,22.6453975 18.6871,21.0920173 17.1002129,19.1553181 C16.5171927,20.1350601 16.2250125,21.1858367 16.2250125,22.3063076 C16.2250125,23.4267785 16.4810053,24.4413677 16.9956713,25.3527555 C17.5089971,26.2628031 18.1978991,27.0106772 19.061037,27.5936974 C18.0571701,27.5467877 17.1122754,27.2787325 16.2250125,26.7881914 C16.2008875,28.3978632 16.6807064,29.74082 17.6604484,30.8840756 C18.6415306,32.0286715 19.8544806,32.7524207 21.3019789,33.0553231 C20.7645282,33.1960522 20.2163552,33.2657465 19.6561197,33.2657465 C19.2821826,33.2657465 18.8854609,33.2308993 18.4659544,33.1598647 C18.8854609,34.4210646 19.633335,35.4597787 20.7068963,36.2773473 C21.7804576,37.0935755 23.0054701,37.5144222 24.383274,37.5372069 C22.0954225,39.3345174 19.4818838,40.2338428 16.5399774,40.2338428 C15.9797419,40.2338428 15.4664161,40.2097178 15,40.1628081 C17.9405661,42.0539379 21.1733124,42.9988327 24.698239,42.9988327 C26.9391809,43.0229576 29.040734,42.6731455 31.0002179,41.9493964 C32.9610421,41.2256472 34.6417485,40.2807524 36.0423372,39.1133718 C37.4429258,37.9459912 38.6451536,36.5802497 39.6490206,35.0161473 C40.6528875,33.4520449 41.3994213,31.8303107 41.8899625,30.1496042 C42.3805036,28.4688978 42.6257741,26.7761289 42.6257741,25.0726378 C42.6257741,24.7214854 42.6137116,24.4534302 42.5909269,24.2671318 C43.8280019,23.3798689 44.8774382,22.2942451 45.7419164,21.0102605 C45.7419164,21.0102605 43.348183,21.7809193 42.135233,21.920308 Z" id="Twitter-Reverse-Copy" stroke="#FFFFFF" stroke-width="1.6"></path>
            </g>
        </g>
    </g>
</svg>