<?xml version="1.0" encoding="UTF-8"?>
<svg width="61px" height="61px" viewBox="0 0 61 61" version="1.1" xmlns="http://www.w3.org/2000/svg" xmlns:xlink="http://www.w3.org/1999/xlink">
    <!-- Generator: sketchtool 46 (44423) - http://www.bohemiancoding.com/sketch -->
    <title>D4E162FF-35DC-46DF-956C-8D98E0C8AF17</title>
    <desc>Created with sketchtool.</desc>
    <defs></defs>
    <g id="Symbols" stroke="none" stroke-width="1" fill="none" fill-rule="evenodd">
        <g id="C2---Video-Vimeo">
            <g id="Vimeo">
                <rect id="Rectangle" fill="#E00003" x="0" y="0" width="61" height="61"></rect>
                <path d="M44.0897487,17.7371972 C42.2626383,16.6683463 40.1492286,16.7620443 37.7443141,18.0165559 C35.0166621,19.4567284 33.3995046,21.6412792 32.8911064,24.5702082 C34.6470757,23.5013573 35.9414958,23.5239142 36.7743666,24.6396141 C37.6055023,25.755314 37.5360964,27.1954865 36.5661489,28.9618667 C34.5776698,32.8190997 33.121881,34.7485837 32.1970474,34.7485837 C31.9662727,34.7485837 31.758055,34.6201828 31.5723942,34.3651161 C31.3884686,34.1083143 31.1802509,33.6554408 30.9494763,33.0047605 C30.7169665,32.3540801 30.5208948,31.7276919 30.3595261,31.1221254 L29.6307641,28.3337433 C29.4919523,27.7767609 29.3427296,26.9976796 29.1813609,25.9982347 L28.7649255,23.3833673 C28.6486706,22.6407241 28.4751559,21.8269399 28.2443812,20.9437498 C28.0136066,20.0605597 27.7463939,19.3647656 27.4462134,18.852897 C27.1460328,18.3410285 26.7295974,17.935004 26.1986423,17.6330883 C25.665952,17.3311726 25.05518,17.2496207 24.361121,17.3884325 C23.1586638,17.6209423 21.7254319,18.4000235 20.0614254,19.7239411 C18.3974189,21.0478587 17.2418106,22.0837418 16.5946006,22.8263849 L15,24.6396141 L16.2475711,26.3817023 L16.9416301,25.8941258 C17.4500283,25.5696532 17.9584266,25.3249974 18.4668248,25.1618935 C18.975223,24.9987897 19.4142154,25.0577847 19.7838018,25.3354083 C20.0614254,25.708465 20.9168531,28.2990403 22.350085,33.1088693 C23.7833169,37.9204335 24.6838585,40.7088156 25.05518,41.4757508 C25.4247665,42.242686 25.9210187,42.9402153 26.5456718,43.5666036 C27.1703249,44.194727 27.9320547,44.6354545 28.8343314,44.8922563 C29.734873,45.147323 30.6718527,44.9495162 31.6418001,44.2988359 C34.0918285,42.6261536 36.9235893,39.8724745 40.1370825,36.0377984 C43.3488407,32.2031223 45.3251737,28.1255255 46.0660817,23.803273 C46.5744799,20.827495 45.9151239,18.8060481 44.0897487,17.7371972" id="Vimeo-Reverse" stroke="#FFFFFF" stroke-width="1.6"></path>
            </g>
        </g>
    </g>
</svg>