<?xml version="1.0" encoding="UTF-8"?>
<svg width="61px" height="61px" viewBox="0 0 61 61" version="1.1" xmlns="http://www.w3.org/2000/svg" xmlns:xlink="http://www.w3.org/1999/xlink">
    <!-- Generator: sketchtool 46 (44423) - http://www.bohemiancoding.com/sketch -->
    <title>C12D4438-76A8-4F15-A04B-94A94E23E5F9</title>
    <desc>Created with sketchtool.</desc>
    <defs></defs>
    <g id="Symbols" stroke="none" stroke-width="1" fill="none" fill-rule="evenodd">
        <g id="C2---Video-YouTube">
            <g id="YouTube">
                <rect id="Rectangle" fill="#E00003" x="0" y="0" width="61" height="61"></rect>
                <path d="M47,32.7456945 L47,27.4807249 C46.9641449,26.9041742 46.9555396,26.3247551 46.8852635,25.752507 C46.7504482,24.6653789 46.6529222,23.5653431 46.4119756,22.498294 C46.0147006,20.7428261 44.5518107,19.5839878 42.7533166,19.4061462 C40.3438508,19.1666339 37.9315167,19.049029 35.5120115,19.0332527 C32.6522051,19.0146081 29.7895303,18.9773187 26.9297239,19.0189107 C24.7870204,19.0504632 22.644317,19.1867128 20.5016135,19.2957124 C19.892076,19.3272649 19.2753675,19.3803305 18.6787379,19.5065407 C17.2144138,19.8148949 16.2205091,20.7098393 15.7214055,22.1110584 C15.348512,23.1594628 15.2452492,24.2681039 15.15346,25.3710082 C15.1018286,26.0077956 15.0788813,26.6460172 15.0401578,27.2828045 C15.0344209,27.3659885 15.0143421,27.4491724 15,27.5323564 L15,32.7456945 C15.0315525,33.2462323 15.0401578,33.7482043 15.0989602,34.2444395 C15.2294729,35.3502122 15.3384726,36.4631559 15.5421298,37.5560208 C15.8892076,39.4262251 17.3650054,40.6840236 19.2524202,40.8719046 C21.6604518,41.1099827 24.0742202,41.2275876 26.4922911,41.2433639 C29.3535317,41.2634428 32.2147723,41.3021663 35.0745787,41.2577059 C37.2861241,41.2218508 39.4962352,41.076996 41.7063464,40.9636938 C42.2484762,40.9364438 42.7963428,40.8848124 43.3255647,40.7715102 C44.7784152,40.4602875 45.7680172,39.5782509 46.2742919,38.1899397 C46.6500538,37.1587457 46.749014,36.0673151 46.8422374,34.9816213 C46.8981714,34.3376629 46.9196845,33.6908361 46.9598422,33.0454435 C46.9655791,32.9450491 46.9856579,32.8460889 47,32.7456945 M37.0480459,29.8313883 C33.6231624,31.6069351 30.268555,33.3451925 26.8795267,35.1020946 L26.8795267,24.5248268 C30.2671208,26.2932025 33.6231624,28.0443678 37.0480459,29.8313883" id="Fill-1" stroke="#FFFFFF" stroke-width="1.6"></path>
            </g>
        </g>
    </g>
</svg>